<?xml version="1.0" standalone="no"?>
<!DOCTYPE svg PUBLIC "-//W3C//DTD SVG 20010904//EN"
 "http://www.w3.org/TR/2001/REC-SVG-20010904/DTD/svg10.dtd">
<svg version="1.0" xmlns="http://www.w3.org/2000/svg"
 width="16.000000pt" height="16.000000pt" viewBox="0 0 16.000000 16.000000"
 preserveAspectRatio="xMidYMid meet">
<metadata>
Created by potrace 1.11, written by Peter Selinger 2001-2013
</metadata>
<g transform="translate(0.000000,16.000000) scale(0.004000,-0.004000)"
fill="#000000" stroke="none">
<path d="M2535 3985 c-22 -8 -62 -14 -88 -14 -47 -1 -52 -4 -110 -64 -94 -96
-200 -211 -248 -269 -24 -28 -53 -60 -63 -70 -11 -10 -17 -18 -14 -18 2 0 -15
-21 -39 -47 -24 -27 -60 -75 -80 -108 -20 -33 -43 -68 -51 -77 -8 -10 -12 -18
-8 -18 4 0 -2 -12 -13 -26 -12 -15 -21 -31 -21 -36 0 -5 -5 -14 -10 -21 -30
-34 -182 -247 -208 -291 -17 -28 -34 -67 -38 -86 -3 -19 -7 -197 -8 -395 l-2
-360 -49 -75 c-52 -80 -93 -156 -139 -257 -24 -54 -32 -63 -54 -64 -38 -2 -82
-7 -122 -15 -19 -4 -178 -9 -353 -11 l-319 -4 -102 -49 c-66 -31 -114 -61
-137 -85 -19 -20 -53 -55 -76 -78 -24 -22 -43 -44 -43 -48 0 -4 -13 -27 -28
-51 -16 -24 -47 -72 -70 -107 -24 -35 -41 -65 -39 -67 2 -2 19 1 38 6 41 12
86 13 91 2 1 -5 30 -33 63 -62 59 -53 103 -124 111 -179 2 -14 5 -35 7 -46 11
-78 54 -189 89 -232 96 -118 230 -250 275 -273 27 -13 51 -28 55 -34 11 -17
-177 -226 -204 -226 -30 0 -76 -22 -81 -38 -3 -9 -10 -32 -15 -49 -9 -28 -8
-32 6 -30 9 2 26 8 37 14 11 6 34 14 51 17 18 4 42 20 54 36 23 30 157 100
225 119 22 6 67 13 100 16 33 3 80 8 105 10 25 2 62 11 83 20 59 24 73 21 71
-20 -4 -73 -16 -169 -25 -192 -5 -13 -9 -26 -9 -29 0 -3 24 -4 52 -2 l53 3 5
52 c3 28 13 60 22 70 17 19 46 83 52 117 11 57 24 74 53 68 15 -2 33 -9 40
-14 6 -5 45 -11 85 -14 69 -6 79 -4 142 27 39 19 84 51 108 77 30 33 52 47 82
53 23 5 52 11 66 14 14 3 41 8 60 11 19 3 51 9 70 14 105 27 413 80 502 86 57
3 222 8 368 9 146 1 279 5 295 8 17 3 49 8 72 11 23 3 84 19 135 35 51 16 119
38 150 48 l57 18 -102 28 c-56 16 -111 33 -122 37 -11 5 -45 16 -75 24 -30 9
-102 43 -159 76 -57 33 -105 60 -107 60 -2 0 -36 19 -76 43 -40 24 -180 96
-311 161 -131 65 -235 122 -230 125 5 3 18 22 29 41 70 120 108 170 138 179
79 24 481 170 541 197 35 16 181 64 210 70 11 2 34 7 50 9 17 3 44 10 60 15
17 5 46 12 65 15 61 10 102 27 185 75 44 26 106 56 138 66 31 10 57 20 58 23
1 3 2 29 4 56 2 44 34 193 67 310 6 22 13 47 14 55 2 12 -15 89 -51 230 -2 8
-13 43 -24 78 l-19 62 26 32 c15 18 39 46 55 62 47 53 46 57 -58 214 -92 137
-97 147 -92 186 8 59 17 109 22 124 5 13 -22 45 -131 162 -111 118 -124 132
-124 141 0 10 22 51 31 59 4 3 9 15 13 27 5 17 1 24 -18 35 -14 7 -95 54 -178
105 -84 50 -177 99 -207 107 -73 21 -623 22 -686 1z"/>
</g>
</svg>
